
<svg width="1536px" height="1408px" viewBox="0 0 1536 1408" version="1.1" xmlns="http://www.w3.org/2000/svg" xmlns:xlink="http://www.w3.org/1999/xlink">
    <!-- Generator: Sketch 47.1 (45422) - http://www.bohemiancoding.com/sketch -->
    <desc>Created with Sketch.</desc>
    <defs></defs>
    <g id="Page-1" stroke="none" stroke-width="1" fill="none" fill-rule="evenodd">
        <g id="filter-slider" fill-rule="nonzero" fill="#FFFFFF">
            <path d="M352,1152 L352,1280 L0,1280 L0,1152 L352,1152 Z M704,1024 C721.333333,1024 736.333333,1030.33333 749,1043 C761.666667,1055.66667 768,1070.66667 768,1088 L768,1344 C768,1361.33333 761.666667,1376.33333 749,1389 C736.333333,1401.66667 721.333333,1408 704,1408 L448,1408 C430.666667,1408 415.666667,1401.66667 403,1389 C390.333333,1376.33333 384,1361.33333 384,1344 L384,1088 C384,1070.66667 390.333333,1055.66667 403,1043 C415.666667,1030.33333 430.666667,1024 448,1024 L704,1024 Z M864,640 L864,768 L0,768 L0,640 L864,640 Z M224,128 L224,256 L0,256 L0,128 L224,128 Z M1536,1152 L1536,1280 L800,1280 L800,1152 L1536,1152 Z M576,0 C593.333333,0 608.333333,6.33333333 621,19 C633.666667,31.6666667 640,46.6666667 640,64 L640,320 C640,337.333333 633.666667,352.333333 621,365 C608.333333,377.666667 593.333333,384 576,384 L320,384 C302.666667,384 287.666667,377.666667 275,365 C262.333333,352.333333 256,337.333333 256,320 L256,64 C256,46.6666667 262.333333,31.6666667 275,19 C287.666667,6.33333333 302.666667,0 320,0 L576,0 Z M1216,512 C1233.33333,512 1248.33333,518.333333 1261,531 C1273.66667,543.666667 1280,558.666667 1280,576 L1280,832 C1280,849.333333 1273.66667,864.333333 1261,877 C1248.33333,889.666667 1233.33333,896 1216,896 L960,896 C942.666667,896 927.666667,889.666667 915,877 C902.333333,864.333333 896,849.333333 896,832 L896,576 C896,558.666667 902.333333,543.666667 915,531 C927.666667,518.333333 942.666667,512 960,512 L1216,512 Z M1536,640 L1536,768 L1312,768 L1312,640 L1536,640 Z M1536,128 L1536,256 L672,256 L672,128 L1536,128 Z" id="Shape"></path>
        </g>
    </g>
</svg>
